<?xml version="1.0" standalone="no"?>
<!DOCTYPE svg PUBLIC "-//W3C//DTD SVG 20010904//EN"
 "http://www.w3.org/TR/2001/REC-SVG-20010904/DTD/svg10.dtd">
<svg version="1.0" xmlns="http://www.w3.org/2000/svg"
 width="800.000000pt" height="800.000000pt" viewBox="0 0 800.000000 800.000000"
 preserveAspectRatio="xMidYMid meet">
<metadata>
Created by potrace 1.11, written by Peter Selinger 2001-2013
</metadata>
<g transform="translate(0.000000,800.000000) scale(0.100000,-0.100000)"
fill="#000000" stroke="none">
<path d="M3857 7979 c-93 -19 -217 -69 -296 -117 -26 -16 -57 -33 -69 -36 -12
-4 -22 -12 -22 -17 0 -5 -4 -9 -10 -9 -5 0 -44 -20 -86 -45 -41 -25 -77 -45
-79 -45 -4 0 -151 -85 -175 -100 -8 -6 -28 -17 -45 -25 -16 -9 -43 -24 -60
-34 -34 -20 -73 -43 -160 -91 -33 -18 -76 -43 -95 -55 -19 -12 -60 -35 -90
-52 -72 -40 -127 -71 -230 -130 -47 -27 -92 -52 -100 -56 -8 -4 -28 -16 -45
-27 -16 -11 -37 -23 -45 -27 -8 -4 -55 -29 -103 -57 -49 -28 -112 -64 -140
-79 -29 -16 -89 -51 -135 -78 -45 -27 -86 -49 -91 -49 -5 0 -16 -6 -23 -14 -8
-8 -32 -23 -54 -33 -21 -11 -84 -46 -139 -78 -55 -32 -113 -65 -130 -73 -16
-9 -32 -18 -35 -22 -3 -3 -23 -15 -45 -26 -22 -11 -59 -32 -82 -47 -24 -15
-46 -27 -51 -27 -4 0 -23 -11 -42 -25 -18 -13 -36 -22 -41 -20 -4 3 -9 1 -11
-3 -1 -4 -61 -41 -133 -82 -151 -85 -249 -155 -323 -231 -113 -117 -187 -259
-221 -424 -7 -33 -10 -611 -11 -1722 0 -1480 2 -1681 16 -1754 9 -46 19 -88
22 -94 4 -5 7 -12 8 -15 5 -30 27 -90 34 -95 6 -3 10 -15 10 -26 0 -10 3 -19
8 -19 4 0 13 -12 20 -27 40 -89 188 -243 280 -289 20 -10 56 -31 79 -47 23
-15 44 -27 47 -27 3 0 29 -14 58 -32 29 -17 76 -43 103 -58 120 -65 221 -125
227 -135 4 -5 8 -6 8 -2 0 5 12 0 27 -11 23 -15 91 -54 263 -152 8 -4 47 -26
85 -48 39 -22 88 -50 110 -62 22 -13 54 -31 70 -41 17 -10 46 -26 65 -37 19
-11 53 -30 75 -42 22 -13 65 -36 95 -53 30 -16 60 -34 67 -39 7 -5 27 -18 45
-27 42 -22 96 -53 296 -167 90 -52 167 -94 172 -94 6 0 10 -4 10 -10 0 -5 4
-10 9 -10 8 0 302 -164 341 -190 8 -6 22 -13 30 -17 8 -4 48 -26 88 -50 41
-24 75 -43 77 -43 2 0 32 -17 66 -38 35 -21 91 -53 124 -71 33 -18 91 -51 128
-73 63 -36 142 -74 142 -67 0 1 9 -3 21 -9 11 -6 32 -13 45 -16 88 -20 125
-26 136 -21 7 2 13 0 13 -6 0 -6 4 -8 8 -5 4 2 39 6 77 7 70 2 164 20 220 40
62 24 170 74 173 81 2 5 12 8 22 8 10 0 21 4 25 9 3 6 80 52 170 103 302 170
330 186 343 198 6 6 12 8 12 6 0 -3 29 12 65 34 36 22 70 40 75 40 6 0 10 5
10 10 0 6 4 10 9 10 5 0 58 28 118 62 59 33 133 75 163 91 30 17 79 45 108 64
29 18 55 33 57 33 3 0 49 25 103 57 165 96 216 124 235 130 9 3 17 9 17 14 0
5 5 9 11 9 6 0 24 9 40 21 16 11 29 17 29 12 0 -4 4 -3 8 2 4 6 54 38 112 70
58 33 123 70 145 83 22 12 48 25 58 29 9 3 17 9 17 14 0 5 4 9 9 9 5 0 64 32
132 70 67 39 124 70 127 70 2 0 16 8 30 19 15 10 54 33 87 51 33 18 76 42 95
53 19 11 49 27 65 35 17 9 32 18 35 21 3 4 26 18 53 31 26 14 47 28 47 32 0 5
8 8 19 8 10 0 24 7 31 15 7 8 17 15 23 15 24 0 180 115 245 182 81 82 108 118
152 200 l30 57 0 1911 0 1911 -31 62 c-38 77 -94 150 -162 213 -57 53 -95 84
-101 84 -2 0 -75 41 -162 90 -86 50 -161 90 -166 90 -4 0 -8 4 -8 8 0 4 -12
13 -27 20 -45 20 -108 54 -113 61 -3 3 -21 14 -40 25 -72 38 -145 79 -156 87
-6 5 -42 25 -80 45 -38 20 -77 43 -86 52 -10 8 -18 12 -18 8 0 -4 -20 7 -44
24 -25 16 -49 30 -54 30 -5 0 -15 7 -22 15 -7 8 -16 12 -21 9 -5 -3 -9 0 -9 5
0 6 -4 11 -8 11 -5 0 -80 41 -168 91 -87 50 -179 103 -204 117 -25 14 -107 60
-182 103 -75 44 -141 79 -147 79 -5 0 -11 4 -13 8 -3 9 -167 102 -178 102 -5
0 -10 3 -12 8 -1 4 -21 16 -43 27 -22 11 -42 22 -45 26 -3 3 -34 22 -70 41
-76 42 -239 134 -362 205 -48 28 -101 57 -118 65 -16 7 -30 16 -30 20 0 5 -6
8 -14 8 -8 0 -16 3 -18 8 -1 4 -19 15 -38 24 -19 10 -53 28 -75 41 -189 111
-305 147 -490 152 -78 2 -135 -2 -198 -16z"/>
</g>
</svg>
